<svg width="35" height="40" viewBox="0 0 35 40" fill="none" xmlns="http://www.w3.org/2000/svg">
<path d="M29.2628 21.1378C29.2442 17.8604 30.7877 15.3867 33.9121 13.565C32.1639 11.1627 29.5231 9.84108 26.0361 9.5821C22.7351 9.33206 19.1273 11.4307 17.8069 11.4307C16.4121 11.4307 13.2133 9.6714 10.7027 9.6714C5.51408 9.75177 0 13.6453 0 21.5664C0 23.9061 0.446334 26.3232 1.339 28.8177C2.52922 32.0951 6.82519 40.1323 11.3071 39.9983C13.6504 39.9448 15.3055 38.3998 18.3555 38.3998C21.3124 38.3998 22.8467 39.9983 25.4596 39.9983C29.9787 39.9358 33.8656 32.6309 35 29.3446C28.9373 26.6031 29.2628 21.3074 29.2628 21.1378ZM23.9997 6.47439C26.5383 3.58101 26.3058 0.946601 26.2314 0C23.9904 0.125023 21.3961 1.46455 19.9176 3.11664C18.2904 4.88482 17.3326 7.07272 17.5372 9.53745C19.9641 9.71605 22.1772 8.51941 23.9997 6.47439Z" fill="black"/>
</svg>
